# xmcd CD database file
#
# Track frame offsets:
#	150
#	17600
#	41554
#	64409
#	81597
#	97208
#	114383
#	128373
#	146157
#	163028
#	178805
#	192656
#	208497
#	223560
#	243518
#	258646
#	284861
#	303152
#	321856
#	343632
#
# Disc length: 4773 seconds
#
# Revision: 1
# Processed by: cddbd v1.5.2PL0 Copyright (c) Steve Scherf et al.
# Submitted via: CDex 1.51
#
DISCID=4612a314
DTITLE=Chilled - 1991 - 2010 CD 1
DYEAR=2010
DGENRE=New Age
TTITLE0=Holly Throsby - Now I love someone
TTITLE1=Lux - northern lights
TTITLE2=MadreDeus - haja o que houver
TTITLE3=The Beloved - sweet harmony
TTITLE4=The Sabres of Paradise - smokebelch
TTITLE5=Chicane - offshore
TTITLE6=Moloko - sing it back
TTITLE7=Knobe  - slip into something more confortable
TTITLE8=Rae and Christian Feat Veba - spellbound
TTITLE9=Aim - coldwater music
TTITLE10=Smoke city - underwater love
TTITLE11=Sneaker Pimps - 6 underground
TTITLE12=Olive - you're not alone
TTITLE13=Delerium Feat Sarah McLachlan - silence
TTITLE14=Deepest Blue - deepest blue
TTITLE15=Moby - whispering wind
TTITLE16=Aromabar - winter pageant
TTITLE17=Mandalay - beautiful
TTITLE18=Nightmares on Wax - Les nuits
TTITLE19=Art of Noise - moments in love
EXTD=YEAR: 2010
EXTT0=
EXTT1=
EXTT2=
EXTT3=
EXTT4=
EXTT5=
EXTT6=
EXTT7=
EXTT8=
EXTT9=
EXTT10=
EXTT11=
EXTT12=
EXTT13=
EXTT14=
EXTT15=
EXTT16=
EXTT17=
EXTT18=
EXTT19=
PLAYORDER=
